<svg width="133" height="45" viewBox="0 0 133 45" fill="none" xmlns="http://www.w3.org/2000/svg">
<rect x="1.07031" y="1.00244" width="131" height="43" rx="6.5" fill="black"/>
<path d="M90.2488 21.6236V24.1437H88.6691V25.7964H90.2488V31.4119C90.2488 33.3293 91.1162 34.0963 93.2985 34.0963C93.682 34.0963 94.0472 34.0507 94.3668 33.9959V32.3615C94.0929 32.3889 93.9194 32.4071 93.6181 32.4071C92.6411 32.4071 92.2119 31.9506 92.2119 30.9097V25.7964H94.3668V24.1437H92.2119V21.6236H90.2488Z" fill="white"/>
<path d="M99.926 34.2333C102.83 34.2333 104.61 32.2884 104.61 29.0652C104.61 25.8603 102.821 23.9063 99.926 23.9063C97.0224 23.9063 95.2328 25.8603 95.2328 29.0652C95.2328 32.2884 97.0133 34.2333 99.926 34.2333ZM99.926 32.4893C98.2186 32.4893 97.2598 31.2384 97.2598 29.0652C97.2598 26.9103 98.2186 25.6503 99.926 25.6503C101.624 25.6503 102.592 26.9103 102.592 29.0652C102.592 31.2292 101.624 32.4893 99.926 32.4893Z" fill="white"/>
<path d="M106.134 34.0416H108.097V28.1704C108.097 26.7734 109.147 25.8329 110.635 25.8329C110.982 25.8329 111.566 25.8968 111.731 25.9516V24.0159C111.521 23.9611 111.146 23.9337 110.854 23.9337C109.558 23.9337 108.453 24.6459 108.17 25.6229H108.024V24.098H106.134V34.0416Z" fill="white"/>
<path d="M116.605 25.5772C118.057 25.5772 119.007 26.5908 119.052 28.1521H114.03C114.14 26.5999 115.153 25.5772 116.605 25.5772ZM119.043 31.3571C118.678 32.1332 117.865 32.5624 116.678 32.5624C115.108 32.5624 114.094 31.4575 114.03 29.7135V29.604H121.052V28.9191C121.052 25.7964 119.381 23.9063 116.614 23.9063C113.811 23.9063 112.031 25.9242 112.031 29.1018C112.031 32.2793 113.775 34.2333 116.623 34.2333C118.897 34.2333 120.486 33.1376 120.933 31.3571H119.043Z" fill="white"/>
<path d="M77.3748 30.3696C77.5263 32.8112 79.561 34.3728 82.5894 34.3728C85.8261 34.3728 87.8513 32.7355 87.8513 30.1235C87.8513 28.0699 86.6968 26.9342 83.8955 26.2812L82.3907 25.9121C80.6115 25.4957 79.8922 24.9373 79.8922 23.9625C79.8922 22.7322 81.009 21.9278 82.6841 21.9278C84.274 21.9278 85.3718 22.7133 85.5705 23.972H87.6337C87.5106 21.6723 85.4854 20.054 82.7125 20.054C79.7313 20.054 77.7439 21.6723 77.7439 24.1045C77.7439 26.1108 78.8701 27.3033 81.3402 27.8806L83.1005 28.3064C84.9081 28.7323 85.703 29.3569 85.703 30.398C85.703 31.6093 84.4538 32.4895 82.7503 32.4895C80.9238 32.4895 79.6556 31.6661 79.4758 30.3696H77.3748Z" fill="white"/>
<path d="M57.0388 23.9337C55.6874 23.9337 54.5187 24.6094 53.916 25.7416H53.7699V24.098H51.8798V37.3469H53.843V32.535H53.9982C54.5187 33.585 55.6418 34.2059 57.057 34.2059C59.568 34.2059 61.1659 32.2245 61.1659 29.0652C61.1659 25.906 59.568 23.9337 57.0388 23.9337ZM56.4818 32.4437C54.8382 32.4437 53.8064 31.1471 53.8064 29.0744C53.8064 26.9925 54.8382 25.6959 56.4909 25.6959C58.1527 25.6959 59.148 26.9651 59.148 29.0652C59.148 31.1745 58.1527 32.4437 56.4818 32.4437Z" fill="white"/>
<path d="M68.0353 23.9337C66.6839 23.9337 65.5151 24.6094 64.9125 25.7416H64.7664V24.098H62.8763V37.3469H64.8395V32.535H64.9947C65.5151 33.585 66.6382 34.2059 68.0535 34.2059C70.5645 34.2059 72.1624 32.2245 72.1624 29.0652C72.1624 25.906 70.5645 23.9337 68.0353 23.9337ZM67.4783 32.4437C65.8347 32.4437 64.8029 31.1471 64.8029 29.0744C64.8029 26.9925 65.8347 25.6959 67.4874 25.6959C69.1492 25.6959 70.1445 26.9651 70.1445 29.0652C70.1445 31.1745 69.1492 32.4437 67.4783 32.4437Z" fill="white"/>
<path d="M48.3576 34.0416H50.61L45.6794 20.3852H43.3986L38.4679 34.0416H40.6446L41.9033 30.4169H47.1084L48.3576 34.0416ZM44.4301 22.8647H44.591L46.569 28.6377H42.4427L44.4301 22.8647Z" fill="white"/>
<path d="M39.7866 10.0844V16.6723H42.1652C44.1283 16.6723 45.2651 15.4625 45.2651 13.3578C45.2651 11.2851 44.1192 10.0844 42.1652 10.0844H39.7866ZM40.8093 11.0157H42.0511C43.4161 11.0157 44.2242 11.8832 44.2242 13.3715C44.2242 14.8827 43.4298 15.741 42.0511 15.741H40.8093V11.0157Z" fill="white"/>
<path d="M48.7467 16.7682C50.1985 16.7682 51.0888 15.7958 51.0888 14.1842C51.0888 12.5817 50.194 11.6047 48.7467 11.6047C47.2949 11.6047 46.4001 12.5817 46.4001 14.1842C46.4001 15.7958 47.2904 16.7682 48.7467 16.7682ZM48.7467 15.8962C47.893 15.8962 47.4136 15.2707 47.4136 14.1842C47.4136 13.1067 47.893 12.4767 48.7467 12.4767C49.5959 12.4767 50.0798 13.1067 50.0798 14.1842C50.0798 15.2662 49.5959 15.8962 48.7467 15.8962Z" fill="white"/>
<path d="M58.6702 11.7006H57.6886L56.8029 15.4944H56.7253L55.7026 11.7006H54.7621L53.7395 15.4944H53.6664L52.7762 11.7006H51.7809L53.1505 16.6723H54.1595L55.1822 13.0108H55.2598L56.287 16.6723H57.3051L58.6702 11.7006Z" fill="white"/>
<path d="M59.8006 16.6723H60.7821V13.7641C60.7821 12.988 61.2432 12.5041 61.9691 12.5041C62.695 12.5041 63.042 12.9013 63.042 13.7002V16.6723H64.0236V13.4537C64.0236 12.2712 63.4118 11.6047 62.3024 11.6047C61.5537 11.6047 61.0606 11.938 60.8186 12.4904H60.7456V11.7006H59.8006V16.6723Z" fill="white"/>
<path d="M65.5694 16.6723H66.551V9.76025H65.5694V16.6723Z" fill="white"/>
<path d="M70.2426 16.7682C71.6944 16.7682 72.5847 15.7958 72.5847 14.1842C72.5847 12.5817 71.6898 11.6047 70.2426 11.6047C68.7908 11.6047 67.896 12.5817 67.896 14.1842C67.896 15.7958 68.7862 16.7682 70.2426 16.7682ZM70.2426 15.8962C69.3889 15.8962 68.9095 15.2707 68.9095 14.1842C68.9095 13.1067 69.3889 12.4767 70.2426 12.4767C71.0918 12.4767 71.5757 13.1067 71.5757 14.1842C71.5757 15.2662 71.0918 15.8962 70.2426 15.8962Z" fill="white"/>
<path d="M75.5093 15.9281C74.9751 15.9281 74.5871 15.6679 74.5871 15.2205C74.5871 14.7822 74.8975 14.5494 75.5823 14.5037L76.7967 14.4261V14.8416C76.7967 15.4579 76.2489 15.9281 75.5093 15.9281ZM75.2582 16.7545C75.911 16.7545 76.4543 16.4714 76.7511 15.9738H76.8287V16.6723H77.7737V13.2756C77.7737 12.2256 77.0707 11.6047 75.8243 11.6047C74.6966 11.6047 73.8931 12.1525 73.7927 13.0063H74.7423C74.8519 12.6547 75.2308 12.4539 75.7786 12.4539C76.4498 12.4539 76.7967 12.7506 76.7967 13.2756V13.7048L75.4499 13.7824C74.2675 13.8554 73.6009 14.3713 73.6009 15.2662C73.6009 16.1747 74.2994 16.7545 75.2582 16.7545Z" fill="white"/>
<path d="M81.1047 16.7545C81.7895 16.7545 82.3693 16.4303 82.6661 15.8871H82.7437V16.6723H83.6841V9.76025H82.7026V12.4904H82.6295C82.3602 11.9425 81.7849 11.6184 81.1047 11.6184C79.8492 11.6184 79.0411 12.6136 79.0411 14.1842C79.0411 15.7592 79.84 16.7545 81.1047 16.7545ZM81.3832 12.4995C82.2049 12.4995 82.7208 13.1524 82.7208 14.1887C82.7208 15.2296 82.2095 15.8734 81.3832 15.8734C80.5523 15.8734 80.0546 15.2388 80.0546 14.1842C80.0546 13.1387 80.5568 12.4995 81.3832 12.4995Z" fill="white"/>
<path d="M90.0493 16.7682C91.5011 16.7682 92.3913 15.7958 92.3913 14.1842C92.3913 12.5817 91.4965 11.6047 90.0493 11.6047C88.5975 11.6047 87.7026 12.5817 87.7026 14.1842C87.7026 15.7958 88.5929 16.7682 90.0493 16.7682ZM90.0493 15.8962C89.1955 15.8962 88.7162 15.2707 88.7162 14.1842C88.7162 13.1067 89.1955 12.4767 90.0493 12.4767C90.8984 12.4767 91.3824 13.1067 91.3824 14.1842C91.3824 15.2662 90.8984 15.8962 90.0493 15.8962Z" fill="white"/>
<path d="M93.6907 16.6723H94.6722V13.7641C94.6722 12.988 95.1333 12.5041 95.8592 12.5041C96.5851 12.5041 96.9321 12.9013 96.9321 13.7002V16.6723H97.9137V13.4537C97.9137 12.2712 97.3019 11.6047 96.1925 11.6047C95.4438 11.6047 94.9507 11.938 94.7087 12.4904H94.6357V11.7006H93.6907V16.6723Z" fill="white"/>
<path d="M102.434 10.4633V11.7234H101.645V12.5497H102.434V15.3575C102.434 16.3162 102.868 16.6997 103.959 16.6997C104.151 16.6997 104.334 16.6769 104.493 16.6495V15.8323C104.356 15.846 104.27 15.8551 104.119 15.8551C103.631 15.8551 103.416 15.6268 103.416 15.1064V12.5497H104.493V11.7234H103.416V10.4633H102.434Z" fill="white"/>
<path d="M105.811 16.6723H106.793V13.7687C106.793 13.0154 107.24 12.5086 108.043 12.5086C108.737 12.5086 109.107 12.9104 109.107 13.7048V16.6723H110.089V13.4628C110.089 12.2804 109.436 11.6093 108.377 11.6093C107.628 11.6093 107.103 11.9425 106.861 12.4995H106.783V9.76025H105.811V16.6723Z" fill="white"/>
<path d="M113.63 12.4402C114.356 12.4402 114.83 12.9469 114.853 13.7276H112.342C112.397 12.9515 112.904 12.4402 113.63 12.4402ZM114.849 15.3301C114.666 15.7181 114.26 15.9327 113.666 15.9327C112.881 15.9327 112.374 15.3803 112.342 14.5083V14.4535H115.853V14.1111C115.853 12.5497 115.018 11.6047 113.634 11.6047C112.233 11.6047 111.342 12.6136 111.342 14.2024C111.342 15.7912 112.214 16.7682 113.639 16.7682C114.776 16.7682 115.57 16.2203 115.794 15.3301H114.849Z" fill="white"/>
<path d="M27.8162 22.8334C27.8401 20.9843 28.8331 19.2346 30.4084 18.2661C29.4146 16.8467 27.75 15.9468 26.0182 15.8927C24.171 15.6988 22.3803 16.998 21.439 16.998C20.4795 16.998 19.0302 15.9119 17.4696 15.944C15.4355 16.0097 13.5391 17.1663 12.5494 18.9447C10.422 22.6279 12.0089 28.0411 14.0467 31.0184C15.0663 32.4762 16.2579 34.1047 17.8171 34.047C19.3429 33.9837 19.9127 33.0741 21.7545 33.0741C23.5791 33.0741 24.1137 34.047 25.7046 34.0103C27.3418 33.9837 28.3733 32.5459 29.3571 31.0742C30.0897 30.0354 30.6534 28.8873 31.0274 27.6725C29.1034 26.8587 27.8185 24.9224 27.8162 22.8334Z" fill="white"/>
<path d="M24.8114 13.9347C25.7041 12.863 26.1439 11.4856 26.0374 10.095C24.6736 10.2382 23.4138 10.89 22.509 11.9205C21.6243 12.9274 21.1639 14.2806 21.251 15.6181C22.6153 15.6321 23.9565 14.998 24.8114 13.9347Z" fill="white"/>
<rect x="1.07031" y="1.00244" width="131" height="43" rx="6.5" stroke="#A6A6A6"/>
</svg>
